<svg xmlns="http://www.w3.org/2000/svg" viewBox="0 0 464.7 278.4">
    <title>L'écran est triste</title>
    <style>
    .svg-green {
      color:#78be20;
    }
    </style>
    <ellipse cx="232.9" cy="263.3" fill="#ebebeb" rx="91.4" ry="9.5"/>
      <path fill="#fff" d="M79.8 32.1h306.5v204.7H79.8z" opacity=".8"/>
      <path d="M246.9 164.8c-1.3 0-2.4-1-2.5-2.3-.5-5.4-6.1-8.3-11.2-8.3s-10.6 2.8-11.2 8.1a2.4 2.4 0 0 1-2.8 2.2 2.4 2.4 0 0 1-2.2-2.8c.8-7.2 7.7-12.6 16.1-12.6s15.5 5.5 16.2 12.8c.1 1.4-.9 2.6-2.3 2.7l-.1.2zm-41.4-30l4.9-4.9c1-.9 1.1-2.5.2-3.5s-2.5-1.1-3.5-.2l-.2.2-4.9 4.9-4.9-4.9c-1-1-2.5-1-3.5-.1-1 1-1 2.5-.1 3.5l.1.1 4.9 4.9-4.9 4.9c-1 1-1 2.6 0 3.5s2.6 1 3.5 0l4.9-4.9 4.9 4.9c.5.5 1.1.7 1.8.7 1.4 0 2.5-1.1 2.5-2.5 0-.7-.3-1.3-.7-1.8l-5-4.8zm62 0l4.9-4.9c1-.9 1.1-2.5.2-3.5s-2.5-1.1-3.5-.2l-.2.2-4.9 4.9-4.9-4.9c-1-1-2.6-.9-3.5.1-.9 1-.9 2.5 0 3.5l4.9 4.9-4.9 4.9c-1 1-1 2.6 0 3.5 1 1 2.6 1 3.5 0l4.9-4.9 4.9 4.9c.5.5 1.1.7 1.8.7 1.4 0 2.5-1.1 2.5-2.5 0-.7-.3-1.3-.7-1.8l-5-4.9zm-34.2 92.4a7.7 7.7 0 1 1 7.7-7.7 7.8 7.8 0 0 1-7.7 7.7zm0-11.4a3.7 3.7 0 1 0 0 7.4c2 0 3.7-1.6 3.7-3.7a3.8 3.8 0 0 0-3.7-3.7z"/>
      <path d="M380.1 27H85.7a11 11 0 0 0-11 11v193a11 11 0 0 0 11 11h143.7v16.3h-34c-1.9 0-3.5 1.6-3.5 3.5s1.6 3.5 3.5 3.5h75c1.9 0 3.5-1.6 3.5-3.5s-1.6-3.5-3.5-3.5h-34V242h143.7a11 11 0 0 0 11-11V38a11 11 0 0 0-11-11zm4 204a4 4 0 0 1-4 4H85.7a4 4 0 0 1-4-4v-27.2h302.4V231zm0-31.2H81.7v-140h302.4v140zm0-144H81.7V38a4 4 0 0 1 4-4h294.4a4 4 0 0 1 4 4v17.8zM15 136.1h-3.5v-3.5c0-1.1-.9-2-2-2s-2 .9-2 2v3.5H4c-1.1 0-2 .9-2 2s.9 2 2 2h3.5v3.5c0 1.1.9 2 2 2s2-.9 2-2v-3.5H15c1.1 0 2-.9 2-2s-.9-2-2-2zm416 60h-3.5v-3.5a2 2 0 0 0-2-2 2 2 0 0 0-2 2v3.5H420c-1.1 0-2 .9-2 2s.9 2 2 2h3.5v3.5c0 1.1.9 2 2 2a2 2 0 0 0 2-2v-3.5h3.5c1.1 0 2-.9 2-2s-.9-2-2-2zm31.3-25.7h-9.4V161a2 2 0 0 0-2-2 2 2 0 0 0-2 2v9.4h-9.4c-1.1 0-2 .9-2 2s.9 2 2 2h9.4v9.4c0 1.1.9 2 2 2a2 2 0 0 0 2-2v-9.4h9.4c1.1 0 2-.9 2-2s-.9-2-2-2z"/>
      <path d="M107.4 7.1h-.9v-.8c0-1.1-.9-2-2-2s-2 .9-2 2v.9h-.9c-1.1 0-2 .9-2 2s.9 2 2 2h.9v.8c0 1.1.9 2 2 2s2-.9 2-2v-.9h.9c1.1 0 2-.9 2-2s-.9-2-2-2zm289 243h-.9v-.9a2 2 0 0 0-2-2 2 2 0 0 0-2 2v.9h-.9c-1.1 0-2 .9-2 2s.9 2 2 2h.9v.9c0 1.1.9 2 2 2a2 2 0 0 0 2-2v-.9h.9c1.1 0 2-.9 2-2s-.9-2-2-2zM46.8 102.8a8.5 8.5 0 1 1 8.5-8.5 8.6 8.6 0 0 1-8.5 8.5zm0-13c-2.5 0-4.5 2-4.5 4.5s2 4.5 4.5 4.5 4.5-2 4.5-4.5a4.6 4.6 0 0 0-4.5-4.5z" class="svg-green"/>
      <path d="M450.3 93.8c-5 0-9-4-9-9s4-9 9-9 9 4 9 9-4.1 9-9 9zm0-14c-2.8 0-5 2.2-5 5s2.2 5 5 5 5-2.2 5-5-2.3-5-5-5z"/>
      <path d="M412.3 138.8c-2.8 0-5-2.2-5-5s2.2-5 5-5 5 2.2 5 5-2.3 5-5 5zm0-6c-.6 0-1 .4-1 1s.4 1 1 1 1-.4 1-1-.5-1-1-1z" class="svg-green"/>
      <path d="M58.2 122.8a5 5 0 0 1-5-5 5 5 0 0 1 5-5 5 5 0 0 1 4.4 7.4c-.6 1.2-1.7 2-3 2.4-.4.2-.9.2-1.4.2zm2.7-3.5zm-2.7-2.5h-.3c-.3.1-.5.2-.6.5a1 1 0 0 0-.1.8c.1.3.2.5.5.6.5.3 1.1.1 1.4-.4.1-.2.2-.5.1-.8-.1-.3-.2-.5-.5-.6l-.5-.1z"/>
</svg>