<svg xmlns="http://www.w3.org/2000/svg" viewBox="0 0 308.1 185">
<title>Le téléphone est triste</title>
<style>
    .svg-green {
      fill:#78be20;
    }
    </style>
    <ellipse cx="154.1" cy="156.5" fill="#ebebeb" rx="56.8" ry="5.5"/>
    <path fill="#fff" d="M115.6 31h77v124h-77z"/>
    <path d="M101.8 17h-.8v-.8c0-1-.8-1.7-1.8-1.7s-1.8.8-1.8 1.7v.8h-.8c-1 0-1.8.8-1.8 1.8s.8 1.8 1.8 1.8h.8v.8c0 1 .8 1.7 1.8 1.7s1.8-.8 1.8-1.7v-.8h.8c1 0 1.8-.8 1.8-1.8s-.9-1.8-1.8-1.8z" class="st2"/>
    <path d="M276.4 92.9c-4.4 0-7.9-3.5-7.9-7.9s3.5-7.9 7.9-7.9 7.9 3.5 7.9 7.9c-.1 4.4-3.6 7.9-7.9 7.9zm0-12.3c-2.4 0-4.4 2-4.4 4.4s2 4.4 4.4 4.4c2.4 0 4.4-2 4.4-4.4 0-2.4-2-4.4-4.4-4.4z"/>
    <path d="M221.2 50.5c-2.4 0-4.4-2-4.4-4.4 0-2.4 2-4.4 4.4-4.4s4.4 2 4.4 4.4c0 2.4-1.9 4.4-4.4 4.4zm0-5.3c-.5 0-.9.4-.9.9s.4.9.9.9.9-.4.9-.9-.4-.8-.9-.9c.1 0 0 0 0 0zm-2.2 90.9h-3V133c0-1-.8-1.8-1.8-1.8s-1.8.8-1.8 1.8v3.1h-3.1c-1 0-1.8.8-1.8 1.8s.8 1.8 1.8 1.8h3.1v3.1c0 1 .8 1.8 1.8 1.8s1.8-.8 1.8-1.8v-3.1h3.1c1 0 1.8-.8 1.8-1.8s-.9-1.8-1.9-1.8z" class="svg-green"/>
    <path d="M251.6 106.6h-8.2v-8.2c-.1-1-.9-1.7-1.9-1.6-.9.1-1.6.8-1.6 1.6v8.2h-8.2c-1 0-1.8.8-1.8 1.8s.8 1.8 1.8 1.8h8.2v8.2c.1 1 .9 1.7 1.9 1.6.9-.1 1.6-.8 1.6-1.6v-8.2h8.2c1 0 1.8-.8 1.8-1.8s-.8-1.8-1.8-1.8zM56.4 134.5h-3.1v-3.1c0-1-.8-1.8-1.8-1.8s-1.8.8-1.8 1.8v3.1h-3.1c-1 0-1.8.8-1.8 1.8s.8 1.8 1.8 1.8h3.1v3.1c0 1 .8 1.8 1.8 1.8s1.8-.8 1.8-1.8V138h3.1c1 0 1.8-.8 1.8-1.8s-.9-1.7-1.8-1.7z"/>
    <path d="M70.7 70c-4.1 0-7.4-3.3-7.4-7.4 0-4.1 3.3-7.4 7.4-7.4 4.1 0 7.4 3.3 7.4 7.4 0 4.1-3.3 7.4-7.4 7.4zm0-11.4c-2.2 0-3.9 1.8-3.9 3.9 0 2.2 1.8 3.9 3.9 3.9 2.2 0 3.9-1.8 3.9-3.9 0-2.1-1.8-3.9-3.9-3.9z" class="st2"/>
    <path d="M83.7 83.5c-2 0-3.7-1.3-4.2-3.2-.6-2.3.7-4.7 3-5.4 2.3-.6 4.7.7 5.4 3 .3 1.1.2 2.3-.4 3.3-.6 1-1.5 1.8-2.6 2.1-.4.2-.8.2-1.2.2zm2.3-3.1zm-2.3-2.1h-.2c-.2.1-.4.2-.5.4-.1.2-.1.4-.1.7.1.2.2.4.4.5.4.2 1 .1 1.2-.3.1-.2.1-.4.1-.7-.2-.4-.5-.7-.9-.6zm105-50.3h-69c-3.8 0-7 3.2-6.9 7v116.2c0 3.8 3.1 7 6.9 7h69c3.9 0 7-3.1 7-7V35c-.1-3.9-3.2-7-7-7zm-71.6 20.8h74.1v82.8h-74.1V48.8zm2.5-16.3h69c1.4 0 2.5 1.1 2.5 2.5v11.3H117V35c.1-1.4 1.2-2.5 2.6-2.5zm69 121.3h-69c-1.4 0-2.5-1.1-2.5-2.5v-17.2h74.1v17.2c0 1.4-1.2 2.5-2.6 2.5z"/>
    <path d="M154.1 139.1c-2.7 0-4.9 2.2-4.9 4.9s2.2 4.9 4.9 4.9 4.9-2.2 4.9-4.9-2.2-4.9-4.9-4.9zm0 7.2c-1.3 0-2.3-1-2.3-2.3s1-2.3 2.3-2.3 2.3 1 2.3 2.3c.1 1.3-1 2.3-2.3 2.3zm.2-48.6c-5.3 0-9.7 3.4-10.2 7.9-.1.9.5 1.7 1.3 1.8.9.1 1.7-.5 1.8-1.3v-.1c.4-3.3 3.9-5.1 7.1-5.1s6.8 1.8 7.1 5.2c.1.8.8 1.4 1.6 1.4h.1c.9-.1 1.5-.8 1.4-1.7-.4-4.6-4.8-8.1-10.2-8.1zm-14.4-14.4c-.6-.6-1.6-.6-2.2 0l-3.1 3.1-3.1-3.1c-.6-.6-1.6-.6-2.2 0-.6.6-.6 1.6 0 2.2l3.1 3.1-3.1 3.1c-.6.6-.6 1.6 0 2.2.3.3.7.5 1.1.5.4 0 .8-.2 1.1-.5l3.1-3.1 3.1 3.1c.3.3.7.5 1.1.5.4 0 .8-.2 1.1-.5.6-.6.6-1.6 0-2.2l-3.1-3.1 3.1-3.1c.6-.6.6-1.6 0-2.2zm36.1 5.3l3.1-3.1c.6-.7.5-1.7-.1-2.2-.6-.5-1.5-.5-2.1 0l-3.1 3.1-3.1-3.1c-.7-.6-1.7-.5-2.2.1-.5.6-.5 1.5 0 2.1l3.1 3.1-3.1 3.1c-.6.6-.6 1.6 0 2.2.3.3.7.5 1.1.5.4 0 .8-.2 1.1-.5l3.1-3.1 3.1 3.1c.6.6 1.6.6 2.2 0 .6-.6.6-1.6 0-2.2l-3.1-3.1z"/>
</svg>